<svg id="_7e0cef8f10d31fb4ce8dc9c00f954414" data-name="7e0cef8f10d31fb4ce8dc9c00f954414" xmlns="http://www.w3.org/2000/svg" width="27.495" height="27.978" viewBox="0 0 27.495 27.978">
  <path id="Tracé_61" data-name="Tracé 61" d="M9.112,7.329a.482.482,0,0,1-.475-.4l-.153-.864a.483.483,0,0,1,.95-.169l.153.864a.482.482,0,0,1-.476.567Zm3.954,22.285a.482.482,0,0,1-.475-.4l-2.928-16.5a.483.483,0,0,1,.95-.169l2.928,16.5a.482.482,0,0,1-.476.567Z" transform="translate(-1.987 -1.641)"/>
  <path id="Tracé_62" data-name="Tracé 62" d="M28.28,30.076H2.232a.482.482,0,1,1,0-.965H28.28a.482.482,0,1,1,0,.965Zm-3.859-4.824H7.056a.481.481,0,0,1-.4-.215L2.8,19.249a.482.482,0,1,1,.8-.534l3.716,5.573H24.421a.482.482,0,0,1,0,.965Z" transform="translate(-1.75 -2.099)"/>
  <path id="Tracé_63" data-name="Tracé 63" d="M5.127,29.647a.483.483,0,0,1-.449-.662l1.929-4.824a.483.483,0,0,1,.9.358L5.574,29.344A.482.482,0,0,1,5.127,29.647Zm21.224,0a.482.482,0,0,1-.448-.3l-1.93-4.824a.483.483,0,0,1,.9-.358L26.8,28.987a.482.482,0,0,1-.449.661ZM2.3,14.491a.482.482,0,0,1-.475-.4A5.612,5.612,0,0,1,3.461,9.254,9.6,9.6,0,0,1,8.806,6.485c4.451-.792,8.565,1.337,9.17,4.742a.48.48,0,0,1-.391.56l-15.2,2.7A.514.514,0,0,1,2.3,14.491Zm8.374-7.208a9.758,9.758,0,0,0-1.7.151A8.643,8.643,0,0,0,4.165,9.913a4.83,4.83,0,0,0-1.443,3.532l14.19-2.518c-.675-2.2-3.225-3.643-6.236-3.643Z" transform="translate(-1.75 -1.67)"/>
  <path id="Tracé_64" data-name="Tracé 64" d="M5.254,13.988a.482.482,0,0,1-.475-.4,6.86,6.86,0,0,1,.732-4.6,4.9,4.9,0,0,1,3.4-2.5c2.884-.509,5.716,1.844,6.32,5.247a.48.48,0,0,1-.391.56l-9.5,1.685a.492.492,0,0,1-.084.007ZM9.7,7.384a3.629,3.629,0,0,0-.626.055,3.954,3.954,0,0,0-2.728,2.03,5.8,5.8,0,0,0-.687,3.475l8.515-1.511C13.571,9.056,11.7,7.384,9.7,7.384Z" transform="translate(-1.853 -1.673)"/>
  <path id="Tracé_65" data-name="Tracé 65" d="M8.2,13.309a.482.482,0,0,1-.475-.4,13.913,13.913,0,0,1-.161-4.283c.258-1.746.925-2.221,1.44-2.312,1.545-.282,2.926,2.685,3.47,5.753a.48.48,0,0,1-.391.56l-3.8.674a.421.421,0,0,1-.085.008Zm1.01-6.047a.226.226,0,0,0-.037,0c-.153.027-.488.377-.654,1.5a12.4,12.4,0,0,0,.079,3.5l2.836-.5c-.613-2.986-1.741-4.5-2.225-4.5ZM24.141,9.218a2.412,2.412,0,1,1,2.412-2.412A2.415,2.415,0,0,1,24.141,9.218Zm0-3.859a1.447,1.447,0,1,0,1.447,1.447A1.449,1.449,0,0,0,24.141,5.359Zm0-1.929a.482.482,0,0,1-.482-.482V1.982a.482.482,0,1,1,.965,0v.965A.482.482,0,0,1,24.141,3.429Zm0,8.683a.482.482,0,0,1-.482-.482v-.965a.482.482,0,1,1,.965,0v.965A.482.482,0,0,1,24.141,12.112Zm4.824-4.824H28a.482.482,0,0,1,0-.965h.965a.482.482,0,1,1,0,.965Zm-8.683,0h-.965a.482.482,0,1,1,0-.965h.965a.482.482,0,0,1,0,.965ZM26.87,4.559a.482.482,0,0,1-.342-.823l.682-.682a.482.482,0,1,1,.682.682l-.682.682A.479.479,0,0,1,26.87,4.559ZM20.729,10.7a.482.482,0,0,1-.342-.823l.682-.682a.482.482,0,1,1,.682.682l-.682.682a.48.48,0,0,1-.341.141Zm6.823,0a.484.484,0,0,1-.342-.141l-.682-.682a.482.482,0,1,1,.682-.682l.682.682a.482.482,0,0,1-.341.823ZM21.411,4.559a.484.484,0,0,1-.342-.141l-.682-.682a.482.482,0,1,1,.682-.682l.682.682a.482.482,0,0,1-.341.823Z" transform="translate(-1.952 -1.5)"/>
</svg>
