<svg xmlns="http://www.w3.org/2000/svg" width="38.093" height="27.86" viewBox="0 0 38.093 27.86">
  <g id="_61ff694aca3917ef37628605a8731170" data-name="61ff694aca3917ef37628605a8731170" transform="translate(0.5 0.5)">
    <path id="Tracé_86" data-name="Tracé 86" d="M19,96.244v10.433a3.619,3.619,0,0,0,3.619,3.619H52.473a3.619,3.619,0,0,0,3.619-3.619V96.244Z" transform="translate(-19 -96.244)" fill="none" stroke="#000" stroke-linejoin="round" stroke-miterlimit="10" stroke-width="1"/>
    <path id="Tracé_87" data-name="Tracé 87" d="M73,254.588h29.269v2.581H73Z" transform="translate(-69.088 -243.116)" fill="none" stroke="#000" stroke-linejoin="round" stroke-miterlimit="10" stroke-width="1"/>
    <circle id="Ellipse_109" data-name="Ellipse 109" cx="0.734" cy="0.734" r="0.734" transform="translate(27.495 7.316)" stroke="#000" stroke-miterlimit="10" stroke-width="1"/>
    <circle id="Ellipse_110" data-name="Ellipse 110" cx="0.734" cy="0.734" r="0.734" transform="translate(29.901 7.302)" stroke="#000" stroke-miterlimit="10" stroke-width="1"/>
    <circle id="Ellipse_111" data-name="Ellipse 111" cx="0.734" cy="0.734" r="0.734" transform="translate(32.4 7.302)" stroke="#000" stroke-miterlimit="10" stroke-width="1"/>
    <path id="Tracé_88" data-name="Tracé 88" d="M109.5,207.255h10.07m-16.554,9.472c0,1.168-1.014,1.168-1.014,2.336s1.014,1.168,1.014,2.336S102,222.568,102,223.736s1.014,1.168,1.014,2.337m5.808-9.346c0,1.168-1.014,1.168-1.014,2.336s1.014,1.168,1.014,2.336-1.014,1.168-1.014,2.337,1.014,1.168,1.014,2.337m5.808-9.346c0,1.168-1.014,1.168-1.014,2.336s1.014,1.168,1.014,2.336-1.014,1.168-1.014,2.337,1.014,1.168,1.014,2.337m5.807-9.346c0,1.168-1.014,1.168-1.014,2.336s1.014,1.168,1.014,2.336-1.014,1.168-1.014,2.337,1.014,1.168,1.014,2.337m5.808-9.346c0,1.168-1.014,1.168-1.014,2.336s1.014,1.168,1.014,2.336-1.014,1.168-1.014,2.337,1.014,1.168,1.014,2.337" transform="translate(-95.987 -199.213)" fill="none" stroke="#000" stroke-linecap="round" stroke-linejoin="round" stroke-miterlimit="10" stroke-width="1"/>
  </g>
</svg>
