<svg xmlns="http://www.w3.org/2000/svg" width="24.047" height="19.854" viewBox="0 0 24.047 19.854">
  <path id="eec2ec49279d1fbb80243037dc6f57a1" d="M13.118,16.231a3.308,3.308,0,1,0,3.308,3.308A3.308,3.308,0,0,0,13.118,16.231Zm0,4.41a1.1,1.1,0,1,1,1.1-1.1A1.1,1.1,0,0,1,13.118,20.642Zm0-8.821a7.784,7.784,0,0,0-5.458,2.26,1.1,1.1,0,1,0,1.555,1.555,5.513,5.513,0,0,1,7.806,0,1.119,1.119,0,1,0,1.61-1.555A7.784,7.784,0,0,0,13.118,11.821Zm0-4.41a12.216,12.216,0,0,0-8.578,3.55,1.107,1.107,0,0,0,1.566,1.566,9.923,9.923,0,0,1,14.025,0A1.107,1.107,0,1,0,21.7,10.961a12.216,12.216,0,0,0-8.578-3.55Zm11.7.43a16.538,16.538,0,0,0-23.4,0A1.107,1.107,0,0,0,2.986,9.407a14.333,14.333,0,0,1,20.265,0,1.107,1.107,0,1,0,1.566-1.566Z" transform="translate(-1.096 -2.993)"/>
</svg>
