<svg xmlns="http://www.w3.org/2000/svg" width="21.777" height="21.78" viewBox="0 0 21.777 21.78">
  <g id="_755feead7f41bac36f45f52d4ef83020" data-name="755feead7f41bac36f45f52d4ef83020" transform="translate(0)">
    <path id="Tracé_66" data-name="Tracé 66" d="M22.681,363.743h5.87a.681.681,0,0,0,.681-.681v-2.382a.681.681,0,0,0-.681-.681h-5.87a.681.681,0,0,0-.681.681v2.382A.681.681,0,0,0,22.681,363.743Zm5.189-1.361H23.361v-1.021H27.87Z" transform="translate(-8.389 -344.686)"/>
    <path id="Tracé_67" data-name="Tracé 67" d="M19.24,228.585a.681.681,0,0,0,.681-.681v-2.722a.681.681,0,1,0-1.361,0V227.9A.681.681,0,0,0,19.24,228.585Zm0-5.1a.681.681,0,0,0,.672-.578l.936-6.125a.681.681,0,0,0-1.346-.206l-.936,6.125a.681.681,0,0,0,.674.784Zm-5.87,5.1a.681.681,0,0,0,.681-.681v-2.722a.681.681,0,1,0-1.361,0V227.9A.681.681,0,0,0,13.37,228.585ZM.694,225.862h5.87a.681.681,0,0,0,.681-.681V222.8a.681.681,0,0,0-.681-.681H.694a.681.681,0,0,0-.681.681v2.382A.681.681,0,0,0,.694,225.862ZM5.884,224.5H1.375V223.48H5.884Z" transform="translate(0.922 -206.805)"/>
    <path id="Tracé_68" data-name="Tracé 68" d="M241.616,132.844a.681.681,0,0,0,.681-.681v-2.722a.681.681,0,0,0-1.361,0v2.722A.681.681,0,0,0,241.616,132.844Zm0-5.1a.681.681,0,0,0,.674-.784l-.936-6.125a.681.681,0,0,0-1.346.206l.936,6.125A.681.681,0,0,0,241.616,127.74Zm5.87,5.1a.681.681,0,0,0,.681-.681v-2.722a.681.681,0,0,0-1.361,0v2.722A.681.681,0,0,0,247.486,132.844Zm3.4,0a.681.681,0,0,0,.681-.681V116.681a.681.681,0,1,0-1.361,0v15.483A.681.681,0,0,0,250.889,132.844Z" transform="translate(-240 -111.064)"/>
    <path id="Tracé_69" data-name="Tracé 69" d="M36.526,21.749h2.3a.681.681,0,0,0,0-1.361h-2.3a.681.681,0,0,0,0,1.361Zm-4-7.827H42.821a.681.681,0,1,0,0-1.361H32.527a.681.681,0,0,0,0,1.361Zm-3.02-7.657H45.841a.681.681,0,0,0,.6-.35l.851-1.531a.681.681,0,0,0-.355-.969L37.914.013a.681.681,0,0,0-.481,0l-9.018,3.4a.681.681,0,0,0-.355.969l.851,1.531A.681.681,0,0,0,29.507,6.266ZM45.441,4.9H29.907l-.273-.492,8.039-3.034,8.039,3.034Z" transform="translate(-26.785 0.031)"/>
    <path id="Tracé_70" data-name="Tracé 70" d="M98.25,73.824v2.382h3.307a4.09,4.09,0,0,1-1.867-2.382Zm12.676,0v2.382h3.307a4.09,4.09,0,0,1-1.867-2.382ZM98.505,61.914l.851,1.531h5.88a4.474,4.474,0,0,1-2.718-3.046Z" transform="translate(-96.634 -57.829)" opacity="0.2"/>
    <path id="Tracé_71" data-name="Tracé 71" d="M148.751,6.293a.682.682,0,0,0,.524-1.114L145.192.244a.681.681,0,0,0-1.049.868l4.083,4.934a.681.681,0,0,0,.525.247Z" transform="translate(-133.779 0.004)"/>
    <path id="Tracé_72" data-name="Tracé 72" d="M240.67,6.289a.681.681,0,0,0,.525-.247l4.083-4.934a.681.681,0,0,0-1.049-.868l-4.084,4.934A.682.682,0,0,0,240.67,6.289Z" transform="translate(-233.865 0.007)"/>
  </g>
</svg>
