<svg id="_28b291177606d3e8d25179943995d25e" data-name="28b291177606d3e8d25179943995d25e" xmlns="http://www.w3.org/2000/svg" width="19.312" height="22.995" viewBox="0 0 19.312 22.995">
  <path id="Tracé_73" data-name="Tracé 73" d="M23.6,20.336H5.964A.834.834,0,0,1,5.13,19.5V.834A.832.832,0,0,1,5.964,0H23.608a.834.834,0,0,1,.834.834V19.5A.837.837,0,0,1,23.6,20.336ZM6.794,18.669H22.771v-17H6.794Z" transform="translate(-5.13)"/>
  <path id="Tracé_74" data-name="Tracé 74" d="M30.514,20.336a.834.834,0,0,1-.834-.834V.834a.834.834,0,0,1,1.667,0V19.5A.834.834,0,0,1,30.514,20.336Z" transform="translate(-20.859)"/>
  <path id="Tracé_75" data-name="Tracé 75" d="M23.6,27.647H5.964a.834.834,0,0,1,0-1.667H23.608a.834.834,0,1,1,0,1.667ZM21.557,39.64a.834.834,0,0,1-.834-.834V36.148a.834.834,0,1,1,1.667,0v2.659A.834.834,0,0,1,21.557,39.64Zm-13.545,0a.834.834,0,0,1-.834-.834V36.148a.834.834,0,1,1,1.667,0v2.659A.834.834,0,0,1,8.012,39.64Z" transform="translate(-5.13 -16.646)"/>
</svg>
