<svg id="_7c769b5ceabbe44aa818a91a4c6f4a81" data-name="7c769b5ceabbe44aa818a91a4c6f4a81" xmlns="http://www.w3.org/2000/svg" width="35.286" height="26.677" viewBox="0 0 35.286 26.677">
  <path id="Tracé_78" data-name="Tracé 78" d="M600.115,583.01a.561.561,0,0,0-.561.561v2.855a.561.561,0,1,0,1.123,0v-2.855A.561.561,0,0,0,600.115,583.01Zm0,14.214a.561.561,0,0,0-.561.561v2.855a.561.561,0,1,0,1.123,0v-2.855A.561.561,0,0,0,600.115,597.224Z" transform="translate(-590.904 -579.035)"/>
  <path id="Tracé_79" data-name="Tracé 79" d="M249.053,419.981h-21.87V411.1h2.653v1.166a2.711,2.711,0,0,0-2.146,2.648.561.561,0,0,0,.561.561h4.292a.561.561,0,0,0,.561-.561q0-.013,0-.025a2.712,2.712,0,0,0-2.145-2.623V411.1h2.918a.858.858,0,0,1,.592,0h6.959a.853.853,0,0,0,.293-.052.835.835,0,0,0,.29.052h2.8v1.166a2.711,2.711,0,0,0-2.146,2.648.561.561,0,0,0,.561.561h4.291a.561.561,0,0,0,.561-.561,2.711,2.711,0,0,0-2.146-2.648V411.1h2.8a.854.854,0,0,0,.848-.858v-3.383a.854.854,0,0,0-.848-.858H242.01a.836.836,0,0,0-.29.052.854.854,0,0,0-.293-.052h-6.959a.858.858,0,0,1-.592,0h-6.959a.854.854,0,0,0-.266.043A.782.782,0,0,0,226.4,406H215.115a.787.787,0,0,0-.786.786v25.105a.787.787,0,0,0,.786.786H226.4a.788.788,0,0,0,.122-.009.562.562,0,0,0,.1.009h22.432a.561.561,0,0,0,.561-.561V420.543A.561.561,0,0,0,249.053,419.981Zm-17.175-5.631h-2.963a1.584,1.584,0,0,1,2.963,0Zm14.979,0H243.9a1.584,1.584,0,0,1,2.963,0ZM236.532,421.1h11.936v2.47H236.532Zm-1.123,0v4.512h-8.226V421.1h8.226Zm13.058-11.129h-6.182v-2.852h6.182Zm-7.305,0h-6.428v-2.852h6.428Zm-7.551,0h-6.428v-2.852h6.428v2.852Zm-18.16-2.852H226.06V416.8H215.452Zm0,10.8H226.06v13.627H215.452Zm11.731,13.627v-4.815h8.226v4.815Zm9.349,0V424.7h11.96v6.858Z" transform="translate(-214.329 -406)"/>
  <path id="Tracé_80" data-name="Tracé 80" d="M1297.255,1268.79h-6.919a.561.561,0,0,0-.561.561v4.394a.561.561,0,0,0,.561.562h6.919a.561.561,0,0,0,.561-.562v-4.394A.562.562,0,0,0,1297.255,1268.79Zm-.562,4.395h-5.8v-3.272h5.8Z" transform="translate(-1265.625 -1249.415)"/>
  <circle id="Ellipse_99" data-name="Ellipse 99" cx="0.733" cy="0.733" r="0.733" transform="translate(16.234 15.741)"/>
  <circle id="Ellipse_100" data-name="Ellipse 100" cx="0.504" cy="0.504" r="0.504" transform="translate(15.564 2.045)"/>
  <circle id="Ellipse_101" data-name="Ellipse 101" cx="0.504" cy="0.504" r="0.504" transform="translate(23.115 2.045)"/>
  <circle id="Ellipse_102" data-name="Ellipse 102" cx="0.504" cy="0.504" r="0.504" transform="translate(30.543 2.045)"/>
  <circle id="Ellipse_103" data-name="Ellipse 103" cx="0.733" cy="0.733" r="0.733" transform="translate(16.234 21.4)"/>
  <circle id="Ellipse_104" data-name="Ellipse 104" cx="0.733" cy="0.733" r="0.733" transform="translate(23.427 15.606)"/>
  <circle id="Ellipse_105" data-name="Ellipse 105" cx="0.733" cy="0.733" r="0.733" transform="translate(25.432 15.606)"/>
  <circle id="Ellipse_106" data-name="Ellipse 106" cx="0.733" cy="0.733" r="0.733" transform="translate(27.438 15.606)"/>
  <circle id="Ellipse_107" data-name="Ellipse 107" cx="0.733" cy="0.733" r="0.733" transform="translate(29.443 15.606)"/>
  <circle id="Ellipse_108" data-name="Ellipse 108" cx="0.733" cy="0.733" r="0.733" transform="translate(31.448 15.606)"/>
</svg>
