<svg xmlns="http://www.w3.org/2000/svg" width="27.168" height="28.115" viewBox="0 0 27.168 28.115">
  <g id="_9640aed1644a07d4df62ce2443a4320b" data-name="9640aed1644a07d4df62ce2443a4320b" transform="translate(0)">
    <path id="Tracé_83" data-name="Tracé 83" d="M72.151,273.213a3.77,3.77,0,0,0,3.367,2.159h3.3a3.989,3.989,0,0,0,3.92-3.952v-4.893a.527.527,0,0,0-.527-.527H72.264a.527.527,0,0,0-.527.527v.579H71.37A2.3,2.3,0,0,0,69,269.448v1.306a2.419,2.419,0,0,0,2.37,2.459Zm.639-6.16h8.9v4.366a2.927,2.927,0,0,1-.856,2.033,2.822,2.822,0,0,1-2.012.867h-3.3a2.821,2.821,0,0,1-2.728-2.9Zm-2.738,3.7v-1.306a1.261,1.261,0,0,1,1.317-1.289h.367v3.261a4.126,4.126,0,0,0,.068.741H71.37A1.366,1.366,0,0,1,70.053,270.754Z" transform="translate(-66.262 -252.416)"/>
    <path id="Tracé_84" data-name="Tracé 84" d="M43.027,9.157A3.9,3.9,0,0,0,40.232,8h-19.2A4,4,0,0,0,17,11.959v.988a3.959,3.959,0,0,0,1.191,2.829,4.012,4.012,0,0,0,2.837,1.175h3.522l.242,1.16a.527.527,0,0,0,.515.419h1.169v.9a.527.527,0,0,0,.527.527h1.948a.527.527,0,0,0,.527-.527v-.9h1.207a.527.527,0,0,0,.515-.419l.242-1.16h3.88V31.587H21.412a3.95,3.95,0,0,0-3.983,4,.527.527,0,0,0,.527.527H43.641a.527.527,0,0,0,.527-.527V11.959A3.953,3.953,0,0,0,43.027,9.157ZM28.425,18.9h-.9V18.53h.9Zm1.832-1.422H25.736l-.11-.527h4.74ZM43.115,35.062H18.525a2.886,2.886,0,0,1,.813-1.587,2.924,2.924,0,0,1,2.074-.835H35.849a.527.527,0,0,0,.527-.527V16.424a.527.527,0,0,0-.527-.527H21.028a2.965,2.965,0,0,1-2.1-.87,2.913,2.913,0,0,1-.879-2.08v-.988a2.945,2.945,0,0,1,2.975-2.906h19.2a2.864,2.864,0,0,1,2.883,2.906Z" transform="translate(-17 -8)"/>
  </g>
</svg>
