<svg xmlns="http://www.w3.org/2000/svg" width="33.077" height="24.256" viewBox="0 0 33.077 24.256">
  <g id="Layer_2" data-name="Layer 2" transform="translate(0)">
    <rect id="Rectangle_99" data-name="Rectangle 99" width="2.205" height="2.205" rx="1" transform="translate(26.737 17.509)"/>
    <rect id="Rectangle_100" data-name="Rectangle 100" width="2" height="4" rx="1" transform="translate(18.692 10.026)"/>
    <path id="Tracé_85" data-name="Tracé 85" d="M30.769,29.256H4.308A3.308,3.308,0,0,1,1,25.949V8.308A3.308,3.308,0,0,1,4.308,5H30.769a3.308,3.308,0,0,1,3.308,3.308V25.949a3.308,3.308,0,0,1-3.308,3.308ZM4.308,7.205a1.1,1.1,0,0,0-1.1,1.1V25.949a1.1,1.1,0,0,0,1.1,1.1H30.769a1.1,1.1,0,0,0,1.1-1.1V8.308a1.1,1.1,0,0,0-1.1-1.1Z" transform="translate(-1 -5)"/>
    <rect id="Rectangle_101" data-name="Rectangle 101" width="2.205" height="22.051" transform="translate(22.603 1.103)"/>
    <rect id="Rectangle_102" data-name="Rectangle 102" width="8.269" height="2.205" transform="translate(23.705 11.026)"/>
  </g>
</svg>
