<svg xmlns="http://www.w3.org/2000/svg" width="30.348" height="21.177" viewBox="0 0 30.348 21.177">
  <path id="_111420ffb2608c4c80d7dc214aa07552" data-name="111420ffb2608c4c80d7dc214aa07552" d="M4.655,5A2.806,2.806,0,0,0,1.834,7.782V9.632A2.341,2.341,0,0,0,0,11.931v9.382a2.027,2.027,0,0,0,1.834,2.01v1.395a.459.459,0,0,0,.459.459H4.127a.459.459,0,0,0,.459-.459V23.343H24.763v1.376a.459.459,0,0,0,.459.459h1.834a.459.459,0,0,0,.459-.459V23.323a2.026,2.026,0,0,0,1.834-2.01V11.931a2.341,2.341,0,0,0-1.834-2.3V7.782A2.806,2.806,0,0,0,24.693,5Zm0,.928H24.693a1.86,1.86,0,0,1,1.893,1.854V9.634a2.341,2.341,0,0,0-1.823,2.3v3.158H4.549c-.1.135.032.371.037.422v-3.58a2.343,2.343,0,0,0-1.823-2.3V7.782A1.86,1.86,0,0,1,4.655,5.928ZM2.293,10.5a1.39,1.39,0,0,1,1.376,1.428V22.426H2.022A1.1,1.1,0,0,1,.917,21.313V11.931A1.39,1.39,0,0,1,2.293,10.5Zm24.763,0a1.39,1.39,0,0,1,1.376,1.428v9.382a1.1,1.1,0,0,1-1.105,1.112H25.68V11.931A1.39,1.39,0,0,1,27.056,10.5Zm-22.47,5.5H24.763v1.845H4.586Zm0,2.762H24.763v3.658H4.586ZM2.751,23.343h.917v.917H2.751Zm22.928,0H26.6v.917H25.68Z" transform="translate(0.5 -4.5)" stroke="#151923" stroke-width="1"/>
</svg>
