<svg id="Layer_5" data-name="Layer 5" xmlns="http://www.w3.org/2000/svg" width="29.591" height="29.591" viewBox="0 0 29.591 29.591">
  <path id="Tracé_60" data-name="Tracé 60" d="M28.42,13.625H25.25V12.568a3.17,3.17,0,0,0-3.17-3.17H21.023a3.17,3.17,0,0,0-3.17,3.17v1.057H15.739V12.568a3.17,3.17,0,0,0-3.17-3.17H11.511a3.17,3.17,0,0,0-3.17,3.17v1.057H6.227V5.17A1.057,1.057,0,0,1,7.284,4.114H26.307A1.057,1.057,0,0,1,27.364,5.17v6.182a1.057,1.057,0,1,0,2.114,0V5.17A3.17,3.17,0,0,0,26.307,2H7.284a3.17,3.17,0,0,0-3.17,3.17v8.645A3.17,3.17,0,0,0,2,16.8v4.227a1.057,1.057,0,0,0,1.057,1.057H19.1a1.057,1.057,0,0,0,0-2.114H4.114V16.8A1.057,1.057,0,0,1,5.17,15.739H28.42A1.057,1.057,0,0,1,29.477,16.8v3.17H25a1.057,1.057,0,1,0,0,2.114h4.481v3.17a1.057,1.057,0,0,1-1.057,1.057H5.17A1.057,1.057,0,0,1,4.114,25.25v-.634a1.057,1.057,0,1,0-2.114,0v.634a3.17,3.17,0,0,0,3.17,3.17H28.42a3.17,3.17,0,0,0,3.17-3.17V16.8A3.17,3.17,0,0,0,28.42,13.625Zm-17.966,0V12.568a1.057,1.057,0,0,1,1.057-1.057h1.057a1.057,1.057,0,0,1,1.057,1.057v1.057Zm9.511,0V12.568a1.057,1.057,0,0,1,1.057-1.057h1.057a1.057,1.057,0,0,1,1.057,1.057v1.057ZM9.4,29.477H5.17a1.057,1.057,0,0,0,0,2.114H9.4a1.057,1.057,0,1,0,0-2.114Zm19.023,0H24.193a1.057,1.057,0,0,0,0,2.114H28.42a1.057,1.057,0,1,0,0-2.114Z" transform="translate(-2 -2)"/>
</svg>
